<svg width="24" height="24" viewBox="0 0 24 24" xmlns="http://www.w3.org/2000/svg">
<path d="M23.0768 5.1309C22.253 5.49228 21.3752 5.73182 20.4599 5.84812C21.4015 5.28597 22.1201 4.4026 22.4579 3.33784C21.5801 3.86122 20.6109 4.23091 19.5779 4.43722C18.7444 3.54969 17.5564 3 16.2604 3C13.746 3 11.7217 5.0409 11.7217 7.54287C11.7217 7.90287 11.7522 8.24902 11.8269 8.57855C8.05114 8.3944 4.7101 6.58473 2.46566 3.82799C2.07382 4.50783 1.84398 5.28597 1.84398 6.12366C1.84398 7.69656 2.65397 9.09086 3.86134 9.89808C3.13166 9.88423 2.41582 9.67239 1.80936 9.3387C1.80936 9.35255 1.80936 9.37055 1.80936 9.38855C1.80936 11.5956 3.38365 13.4288 5.44809 13.8511C5.0784 13.9522 4.67549 14.0006 4.25734 14.0006C3.96657 14.0006 3.67303 13.984 3.3975 13.9231C3.98595 15.7217 5.65578 17.044 7.6413 17.0869C6.09609 18.2957 4.13411 19.024 2.01013 19.024C1.63767 19.024 1.28044 19.0074 0.923218 18.9617C2.93504 20.259 5.31932 20.9998 7.89053 20.9998C16.248 20.9998 20.8172 14.0768 20.8172 8.07594C20.8172 7.87518 20.8102 7.68133 20.8005 7.48887C21.7019 6.84919 22.4593 6.05027 23.0768 5.1309Z"/>
</svg>
